<svg xmlns="http://www.w3.org/2000/svg" viewBox="0 0 460 220" width="460" height="220">
  <rect width="460" height="220" fill="#1A0A04"/>
  <g stroke="#B8933E" stroke-opacity=".07" stroke-width="1">
    <path d="M0 55 H460 M0 110 H460 M115 0 V220 M230 0 V220 M345 0 V220"/>
  </g>
  <!-- skyline -->
  <g stroke="#B8933E" stroke-width="1.3" fill="none" stroke-linejoin="round">
    <!-- needle tower -->
    <path d="M232 148 L238 60 L244 148 M238 60 L238 44 M228 120 H248 M230 96 H246"/>
    <!-- sail hotel -->
    <path d="M186 148 V88 C 186 70, 202 62, 208 60 L208 148 M186 100 H208 M186 124 H208"/>
    <!-- blocks -->
    <path d="M262 148 V96 H288 V148 M270 96 V88 H280 V96 M262 112 H288 M262 130 H288"/>
    <path d="M160 148 V112 H176 V148 M160 130 H176"/>
    <path d="M300 148 V108 L316 100 V148"/>
  </g>
  <!-- horizon / water -->
  <path d="M56 148 H404" stroke="#B8933E" stroke-width="1.2"/>
  <g stroke="#3D6B55" stroke-width="1.1">
    <path d="M70 162 H130 M150 170 H230 M250 162 H330 M350 170 H396"/>
  </g>
  <!-- container ship -->
  <g transform="translate(104 178)" stroke="#D4AF6A" stroke-width="1.4" fill="none" stroke-linejoin="round">
    <path d="M-26 6 H26 L18 18 H-20 Z"/>
    <path d="M-18 6 V-2 H-6 V6 M-6 6 V-6 H8 V6 M8 6 V-2 H18 V6"/>
  </g>
  <!-- route arc from origin to the gulf -->
  <g stroke="#B8933E" stroke-width="1.1" fill="none">
    <path d="M60 40 C 150 14, 300 18, 398 34" stroke-dasharray="3 6"/>
    <circle cx="60" cy="40" r="3.5" fill="#B8933E" stroke="none"/>
    <circle cx="398" cy="34" r="5" fill="none"/>
    <circle cx="398" cy="34" r="1.8" fill="#B8933E" stroke="none"/>
  </g>
</svg>
